<?xml version="1.0" encoding="utf-8"?>
<!-- Svg Vector Icons : http://www.onlinewebfonts.com/icon -->
<!DOCTYPE svg PUBLIC "-//W3C//DTD SVG 1.1//EN" "http://www.w3.org/Graphics/SVG/1.1/DTD/svg11.dtd">
<svg version="1.1" xmlns="http://www.w3.org/2000/svg" xmlns:xlink="http://www.w3.org/1999/xlink" x="0px" y="0px" viewBox="0 0 256 256" enable-background="new 0 0 256 256" xml:space="preserve">
<metadata> Svg Vector Icons : http://www.onlinewebfonts.com/icon </metadata>
<g><g><g><path fill="#000000" d="M192.4,108.1h-75.7c-1.6,0-2.9-1.3-2.9-2.9s1.3-2.9,2.9-2.9h75.7c1.6,0,2.9,1.3,2.9,2.9S194.1,108.1,192.4,108.1z"/><path fill="#000000" d="M192.4,172.5h-75.7c-1.6,0-2.9-1.3-2.9-2.9c0-1.6,1.3-2.9,2.9-2.9h75.7c1.6,0,2.9,1.3,2.9,2.9C195.4,171.2,194.1,172.5,192.4,172.5z"/><path fill="#000000" d="M194.5,26.8h-2.9V13.6c0-2-1.6-3.6-3.6-3.6c-2,0-3.6,1.6-3.6,3.6v13.2h-12.7V13.6c0-2-1.6-3.6-3.6-3.6c-2,0-3.6,1.6-3.6,3.6v13.2h-12.7V13.6c0-2-1.6-3.6-3.6-3.6c-2,0-3.6,1.6-3.6,3.6v13.2h-12.7V13.6c0-2-1.6-3.6-3.6-3.6c-2,0-3.6,1.6-3.6,3.6v13.2h-12.7V13.6c0-2-1.6-3.6-3.6-3.6s-3.6,1.6-3.6,3.6v13.2H91.6V13.6c0-2-1.6-3.6-3.6-3.6c-2,0-3.6,1.6-3.6,3.6v13.2H71.6V13.6c0-2-1.6-3.6-3.6-3.6s-3.6,1.6-3.6,3.6v13.2h-2.9c-18,0-32.7,14.7-32.7,32.7v153.8c0,18,14.7,32.7,32.7,32.7h133c18,0,32.7-14.7,32.7-32.7V59.5C227.2,41.5,212.5,26.8,194.5,26.8z M219.9,213.3c0,14-11.4,25.4-25.4,25.4h-133c-14,0-25.4-11.4-25.4-25.4V59.5c0-14,11.4-25.4,25.4-25.4h2.9v10.5c0,2,1.6,3.6,3.6,3.6c2,0,3.6-1.6,3.6-3.6V34.1h12.7v10.5c0,2,1.6,3.6,3.6,3.6c2,0,3.6-1.6,3.6-3.6V34.1h12.7v10.5c0,2,1.6,3.6,3.6,3.6s3.6-1.6,3.6-3.6V34.1h12.7v10.5c0,2,1.6,3.6,3.6,3.6c2,0,3.6-1.6,3.6-3.6V34.1h12.7v10.5c0,2,1.6,3.6,3.6,3.6c2,0,3.6-1.6,3.6-3.6V34.1h12.7v10.5c0,2,1.6,3.6,3.6,3.6c2,0,3.6-1.6,3.6-3.6V34.1h12.7v10.5c0,2,1.6,3.6,3.6,3.6c2,0,3.6-1.6,3.6-3.6V34.1h2.9c14,0,25.4,11.4,25.4,25.4L219.9,213.3L219.9,213.3z M96.4,91.2l-17.9,28.6c-0.5,0.8-1.4,1.4-2.4,1.6c-0.2,0-0.5,0.1-0.7,0.1c-0.7,0-1.5-0.2-2.1-0.7l-14.8-10.5c-1.6-1.2-2-3.4-0.9-5.1c1.2-1.6,3.4-2,5.1-0.9l11.7,8.3l15.8-25.3c1.1-1.7,3.3-2.2,5-1.2C96.9,87.3,97.4,89.5,96.4,91.2z M96.4,155.7l-17.9,28.6c-0.5,0.8-1.4,1.4-2.4,1.6c-0.2,0-0.5,0.1-0.7,0.1c-0.7,0-1.5-0.2-2.1-0.7l-14.8-10.5c-1.6-1.2-2-3.4-0.9-5.1c1.2-1.6,3.4-2,5.1-0.9l11.7,8.3l15.8-25.3c1.1-1.7,3.3-2.2,5-1.2C96.9,151.8,97.4,154,96.4,155.7z"/></g><g></g><g></g><g></g><g></g><g></g><g></g><g></g><g></g><g></g><g></g><g></g><g></g><g></g><g></g><g></g></g></g>
</svg>